<?xml version="1.0" encoding="UTF-8" standalone="no"?>
<!DOCTYPE svg PUBLIC "-//W3C//DTD SVG 1.1//EN" "http://www.w3.org/Graphics/SVG/1.1/DTD/svg11.dtd">
<!-- Created with Vectornator (http://vectornator.io/) -->
<svg height="100%" stroke-miterlimit="10" style="fill-rule:nonzero;clip-rule:evenodd;stroke-linecap:round;stroke-linejoin:round;" version="1.1" viewBox="0 0 1008 612" width="100%" xml:space="preserve" xmlns="http://www.w3.org/2000/svg" xmlns:xlink="http://www.w3.org/1999/xlink">
<defs/>
<g id="Layer-1">
<path d="M170.194 364.344L403.762 479.966L147.946 306.628L170.194 364.344Z" fill="#cccccc" fill-rule="nonzero" opacity="1" stroke="none"/>
<path d="M94.4972 387.354L385.133 489.071L68.287 332.229L94.4972 387.354Z" fill="#cccccc" fill-rule="nonzero" opacity="1" stroke="none"/>
<path d="M868.688 306.628L612.872 479.966L846.401 364.344L868.688 306.628Z" fill="#cccccc" fill-rule="nonzero" opacity="1" stroke="none"/>
<path d="M631.463 489.071L922.06 387.354L948.309 332.229L631.463 489.071Z" fill="#cccccc" fill-rule="nonzero" opacity="1" stroke="none"/>
<path d="M318.236 109.443L314.846 106.814C311.811 103.971 309.477 100.463 308.026 96.5661C250.612 151.139 218.111 226.883 218.119 306.095C218.114 322.069 219.477 338.013 222.196 353.753C223.173 358.018 227.317 360.772 231.628 360.022C235.938 359.271 238.908 355.279 238.387 350.934C235.821 336.05 234.547 320.971 234.577 305.867C234.608 231.743 264.813 160.826 318.236 109.443Z" fill="#ffffff" fill-rule="nonzero" opacity="1" stroke="none"/>
<path d="M508.412 15.8403C460.676 15.7691 413.669 27.5503 371.609 50.1269C372.346 51.0453 373.021 52.0127 373.628 53.0222C374.847 55.8413 376.257 59.0033 377.438 61.8605C377.463 61.9604 377.463 62.0653 377.438 62.1652C377.548 62.4075 377.625 62.6639 377.666 62.9272C377.684 63.1554 377.684 63.3847 377.666 63.6129C377.666 63.6129 377.666 63.6129 377.666 63.8415L377.666 65.2129C454 23.6805 545.586 21.1321 624.11 58.3557C625.175 52.9144 627.454 47.7836 630.777 43.3458C592.502 25.3069 550.725 15.9161 508.412 15.8403Z" fill="#ffffff" fill-rule="nonzero" opacity="1" stroke="none"/>
<path d="M697.636 86.6231L692.988 92.6423C690.835 94.7955 688.415 96.6647 685.788 98.2043C746.801 150.006 781.996 225.981 782.057 306.019C782.068 321.122 780.794 336.199 778.247 351.087C777.871 353.229 778.363 355.433 779.613 357.212C780.864 358.992 782.771 360.201 784.914 360.573L786.324 360.573C790.31 360.564 793.722 357.713 794.438 353.792C797.135 337.972 798.485 321.952 798.476 305.905C798.424 221.608 761.599 141.529 697.636 86.6231Z" fill="#ffffff" fill-rule="nonzero" opacity="1" stroke="none"/>
<path d="M508.412 596.159C409.325 596.355 317.04 545.791 263.873 462.175C261.432 458.356 262.549 453.282 266.368 450.842C270.187 448.401 275.261 449.518 277.702 453.337C327.997 532.078 414.979 579.73 508.412 579.73C601.846 579.73 688.827 532.078 739.123 453.337C741.563 449.518 746.637 448.401 750.456 450.841C754.275 453.282 755.392 458.356 752.952 462.175C699.795 545.802 607.503 596.369 508.412 596.159Z" fill="#ffffff" fill-rule="nonzero" opacity="1" stroke="none"/>
<path d="M341.361 128.224C314.009 128.224 291.836 106.051 291.836 78.699C291.836 51.3471 314.009 29.174 341.361 29.174C368.712 29.174 390.886 51.3471 390.886 78.699C390.886 106.051 368.712 128.224 341.361 128.224ZM341.361 45.8601C323.161 45.8601 308.407 60.6137 308.407 78.8133C308.407 97.0128 323.161 111.766 341.361 111.766C359.56 111.766 374.314 97.0128 374.314 78.8133C374.293 60.6224 359.551 45.8811 341.361 45.8601Z" fill="#ffffff" fill-rule="nonzero" opacity="1" stroke="none"/>
<path d="M349.78 347.544C315.285 347.544 287.326 319.573 287.34 285.079C287.354 250.584 315.336 222.636 349.831 222.664C384.325 222.693 412.261 250.686 412.219 285.18C412.156 319.626 384.226 347.523 349.78 347.544ZM349.78 239.122C324.368 239.122 303.767 259.718 303.76 285.13C303.753 310.541 324.343 331.148 349.754 331.162C375.166 331.176 395.779 310.592 395.8 285.18C395.8 259.758 375.202 239.143 349.78 239.122Z" fill="#ffffff" fill-rule="nonzero" opacity="1" stroke="none"/>
<path d="M508.412 236.646C473.923 236.667 445.949 208.721 445.934 174.232C445.92 139.742 473.872 111.774 508.361 111.767C542.851 111.76 570.814 139.717 570.814 174.206C570.772 208.658 542.864 236.583 508.412 236.646ZM508.412 128.224C482.986 128.203 462.361 148.805 462.354 174.232C462.347 199.658 482.961 220.271 508.387 220.264C533.813 220.257 554.415 199.632 554.394 174.206C554.352 148.828 533.79 128.266 508.412 128.224Z" fill="#ffffff" fill-rule="nonzero" opacity="1" stroke="none"/>
<path d="M532.489 431.812C504.753 431.812 482.271 409.325 482.278 381.589C482.285 353.853 504.779 331.377 532.514 331.391C560.25 331.405 582.721 353.904 582.7 381.64C582.637 409.338 560.187 431.771 532.489 431.812ZM532.489 348.001C513.827 348.001 498.698 363.13 498.698 381.792C498.698 400.455 513.827 415.583 532.489 415.583C551.151 415.583 566.28 400.455 566.28 381.792C566.321 372.804 562.779 364.17 556.437 357.8C550.096 351.429 541.477 347.848 532.489 347.849L532.489 348.001Z" fill="#ffffff" fill-rule="nonzero" opacity="1" stroke="none"/>
<path d="M671.997 288.99C644.267 288.99 621.786 266.51 621.786 238.779C621.786 211.049 644.267 188.568 671.997 188.568C699.728 188.568 722.208 211.049 722.208 238.779C722.187 266.501 699.719 288.969 671.997 288.99ZM671.997 205.178C653.33 205.178 638.199 220.315 638.206 238.982C638.213 257.65 653.355 272.775 672.023 272.761C690.69 272.747 705.809 257.599 705.788 238.932C705.849 229.93 702.316 221.276 695.972 214.89C689.629 208.503 680.999 204.911 671.997 204.912L671.997 205.178Z" fill="#ffffff" fill-rule="nonzero" opacity="1" stroke="none"/>
<path d="M660.53 118.586C632.979 118.628 610.614 96.3198 610.586 68.7687C610.558 41.2175 632.877 18.864 660.429 18.85C687.98 18.8359 710.322 41.1666 710.322 68.7178C710.301 96.2207 688.033 118.523 660.53 118.586ZM660.53 35.2694C642.062 35.2904 627.106 50.2751 627.12 68.7432C627.134 87.2113 642.113 102.173 660.581 102.166C679.049 102.159 694.017 87.1859 694.017 68.7178C693.996 50.2386 679.009 35.2694 660.53 35.2694Z" fill="#ffffff" fill-rule="nonzero" opacity="1" stroke="none"/>
<path d="M630.32 98.0138L630.32 98.0138L630.091 97.7852C629.023 96.5678 628.019 95.2962 627.082 93.9756C626.625 93.4041 624.948 91.4231 624.072 90.166C624.031 90.0518 623.966 89.9478 623.882 89.8612C623.386 88.8326 622.701 87.2707 622.053 85.6706L546.127 138.32C550.205 142.055 553.484 146.578 555.766 151.615L631.463 98.89L630.32 98.0138Z" fill="#ffffff" fill-rule="nonzero" opacity="1" stroke="none"/>
<path d="M664.606 112.605C661.472 112.584 658.351 112.187 655.311 111.424L661.33 200.683C664.2 199.995 667.141 199.65 670.092 199.654C672.65 199.667 675.202 199.922 677.712 200.416L671.73 111.881C669.383 112.342 666.998 112.585 664.606 112.605Z" fill="#ffffff" fill-rule="nonzero" opacity="1" stroke="none"/>
<path d="M467.459 141.405L376.409 89.4041C375.437 92.0974 374.279 94.7197 372.942 97.2519C371.776 98.9438 370.504 100.56 369.133 102.09L367.952 103.576L460.449 156.415C461.852 151.027 464.228 145.94 467.459 141.405Z" fill="#ffffff" fill-rule="nonzero" opacity="1" stroke="none"/>
<path d="M356.028 233.522L351.189 115.424C350.694 115.424 350.313 115.843 349.856 115.995L340.294 117.252C338.435 117.166 336.588 116.924 334.77 116.529L339.57 233.331C345.02 232.367 350.602 232.432 356.028 233.522Z" fill="#ffffff" fill-rule="nonzero" opacity="1" stroke="none"/>
<path d="M495.421 367.659C496.832 363.404 499.28 359.567 502.545 356.496L397.171 300.838C396.069 303.94 394.797 306.98 393.362 309.943C393.108 310.508 392.815 311.056 392.485 311.581C391.609 312.876 390.543 314.095 389.552 315.391L494.317 370.744C494.628 369.696 494.997 368.666 495.421 367.659Z" fill="#ffffff" fill-rule="nonzero" opacity="1" stroke="none"/>
<path d="M552.87 349.525C555.591 351.36 558.199 353.358 560.68 355.506C561.133 355.863 561.542 356.272 561.899 356.725C562.852 357.906 563.804 359.125 564.718 360.535L647.235 275.961C642.892 272.351 639.536 267.698 637.482 262.437L552.527 349.525L552.87 349.525Z" fill="#ffffff" fill-rule="nonzero" opacity="1" stroke="none"/>
<path d="M389.857 257.142C390.756 258.331 391.534 259.607 392.181 260.951C392.752 262.094 393.171 263.313 393.705 264.494L471.345 210.169C470.136 208.386 469.041 206.529 468.068 204.607C466.232 201.778 464.724 198.749 463.573 195.578L384.79 250.703C386.504 252.76 388.257 254.932 389.857 257.142Z" fill="#ffffff" fill-rule="nonzero" opacity="1" stroke="none"/>
<path d="M639.806 217.179L558.318 185.064C556.886 190.415 554.47 195.453 551.194 199.921L635.539 233.141C635.805 227.577 637.26 222.134 639.806 217.179Z" fill="#ffffff" fill-rule="nonzero" opacity="1" stroke="none"/>
<path d="M520.755 345.563L521.022 345.563C521.262 345.447 521.519 345.369 521.784 345.334C525.172 344.611 528.611 344.152 532.07 343.963L532.794 343.963L536.603 344.344L522.774 225.636C517.919 227.568 512.76 228.625 507.536 228.76C507.257 228.739 506.977 228.739 506.698 228.76L520.374 345.982L520.755 345.563Z" fill="#ffffff" fill-rule="nonzero" opacity="1" stroke="none"/>
<path d="M508.412 549.073C504.577 549.127 501.213 546.524 500.303 542.799C499.392 539.073 501.175 535.213 504.603 533.491L962.176 307.009C965.313 305.432 969.107 306.029 971.607 308.495C974.107 310.961 974.758 314.746 973.224 317.905L935.356 397.526C934.424 399.498 932.734 401.01 930.67 401.717L511.041 548.615C510.194 548.904 509.307 549.058 508.412 549.073ZM948.385 332.229L631.463 489.071L922.06 387.354L948.385 332.229Z" fill="#ffffff" fill-rule="nonzero" opacity="1" stroke="none"/>
<path d="M508.412 549.111C505.688 549.119 503.14 547.76 501.631 545.492C500.394 543.691 499.928 541.471 500.335 539.325C500.743 537.178 501.991 535.284 503.803 534.063L881.297 278.285C884.269 276.269 888.207 276.423 891.012 278.666C893.802 280.908 894.832 284.691 893.564 288.038L860.687 373.221C859.024 377.428 854.287 379.516 850.059 377.906C845.841 376.275 843.743 371.534 845.373 367.316L868.802 306.59L513.022 547.663C511.666 548.598 510.059 549.103 508.412 549.111Z" fill="#ffffff" fill-rule="nonzero" opacity="1" stroke="none"/>
<path d="M508.412 549.073C507.492 549.066 506.579 548.912 505.707 548.615L85.8495 401.717C83.7857 401.01 82.0956 399.498 81.1637 397.526L43.2961 317.905C41.7676 314.742 42.4266 310.956 44.9342 308.495C47.4468 306.071 51.2069 305.478 54.344 307.01L511.917 533.491C515.344 535.213 517.128 539.073 516.217 542.799C515.306 546.525 511.942 549.127 508.107 549.073L508.412 549.073ZM94.4972 387.354L385.133 489.071L68.287 332.229L94.4972 387.354Z" fill="#ffffff" fill-rule="nonzero" opacity="1" stroke="none"/>
<path d="M508.412 549.111C506.769 549.114 505.163 548.623 503.803 547.701L148.022 306.629L171.452 367.354C172.727 371.465 170.602 375.863 166.588 377.418C162.574 378.974 158.041 377.156 156.213 373.259L123.374 288.076C122.05 284.723 123.073 280.898 125.895 278.655C128.717 276.412 132.673 276.277 135.641 278.323L513.098 534.101C516.116 536.108 517.455 539.86 516.391 543.325C515.327 546.79 512.113 549.143 508.488 549.111L508.412 549.111Z" fill="#ffffff" fill-rule="nonzero" opacity="1" stroke="none"/>
</g>
</svg>
