<?xml version="1.0" encoding="UTF-8" standalone="no"?>
<!DOCTYPE svg PUBLIC "-//W3C//DTD SVG 1.1//EN" "http://www.w3.org/Graphics/SVG/1.1/DTD/svg11.dtd">
<!-- Created with Vectornator (http://vectornator.io/) -->
<svg height="100%" stroke-miterlimit="10" style="fill-rule:nonzero;clip-rule:evenodd;stroke-linecap:round;stroke-linejoin:round;" version="1.1" viewBox="0 0 1500 500" width="100%" xml:space="preserve" xmlns="http://www.w3.org/2000/svg" xmlns:xlink="http://www.w3.org/1999/xlink">
<defs/>
<g id="Layer-1">
<path d="M717.47 342.194L723.524 342.194L734.154 372.338L733.317 373.568L733.317 342.194L740.355 342.194L740.355 387.323L734.203 387.323L723.696 358.903L724.508 357.648L724.508 387.323L717.47 387.323L717.47 342.194Z" fill="#000000" fill-rule="nonzero" opacity="1" stroke="none"/>
<path d="M750.96 342.194L758.662 342.194L758.662 387.323L750.96 387.323L750.96 342.194ZM754.381 342.194L771.039 342.194L771.039 349.7L754.381 349.7L754.381 342.194ZM754.381 361.166L769.465 361.166L769.465 368.548L754.381 368.548L754.381 361.166ZM754.381 379.868L771.039 379.868L771.039 387.323L754.381 387.323L754.381 379.868Z" fill="#000000" fill-rule="nonzero" opacity="1" stroke="none"/>
<path d="M784.598 386.511C782.991 385.615 781.695 384.25 780.882 382.599C780.001 380.671 779.572 378.567 779.627 376.447L779.627 342.194L787.354 342.194L787.354 376.644C787.325 377.535 787.613 378.406 788.166 379.105C788.737 379.731 789.56 380.065 790.405 380.015C791.265 380.066 792.104 379.733 792.694 379.105C793.247 378.406 793.535 377.535 793.506 376.644L793.506 342.194L801.257 342.194L801.257 376.447C801.309 378.572 800.863 380.679 799.953 382.599C799.147 384.255 797.849 385.621 796.237 386.511C792.567 388.316 788.268 388.316 784.598 386.511Z" fill="#000000" fill-rule="nonzero" opacity="1" stroke="none"/>
<path d="M810.755 342.145L818.359 342.145L818.359 387.323L810.804 387.323L810.755 342.145ZM814.2 360.871L822.345 360.871C822.94 360.891 823.532 360.764 824.067 360.502C824.541 360.293 824.937 359.94 825.199 359.493C825.445 358.996 825.571 358.448 825.568 357.894L825.568 352.972C825.573 352.362 825.447 351.758 825.199 351.201C824.947 350.716 824.552 350.321 824.067 350.069C823.538 349.787 822.944 349.651 822.345 349.675L814.2 349.675L814.2 342.293L821.877 342.293C824.032 342.232 826.173 342.644 828.152 343.499C829.809 344.228 831.194 345.458 832.114 347.017C833.069 348.703 833.545 350.617 833.492 352.554L833.492 357.795C833.545 359.787 833.069 361.756 832.114 363.504C831.19 365.092 829.797 366.355 828.127 367.121C826.166 368.007 824.029 368.436 821.877 368.376L814.2 368.376L814.2 360.871ZM820.499 366.875L827.537 365.448L834.771 387.397L826.479 387.397L820.499 366.875Z" fill="#000000" fill-rule="nonzero" opacity="1" stroke="none"/>
<path d="M851.676 342.194L857.09 342.194L867.868 387.323L860.19 387.323L854.358 357.795L848.502 387.323L840.849 387.323L851.676 342.194ZM848.231 373.15L860.535 373.15L860.535 380.36L848.231 380.36L848.231 373.15Z" fill="#000000" fill-rule="nonzero" opacity="1" stroke="none"/>
<path d="M876.308 342.194L884.034 342.194L884.034 387.323L876.308 387.323L876.308 342.194ZM879.482 379.941L895.772 379.941L895.772 387.323L879.482 387.323L879.482 379.941Z" fill="#000000" fill-rule="nonzero" opacity="1" stroke="none"/>
<path d="M922.765 342.194L928.819 342.194L939.449 372.338L938.612 373.568L938.612 342.194L945.65 342.194L945.65 387.323L939.523 387.323L929.089 358.952L929.901 357.697L929.901 387.323L922.839 387.323L922.765 342.194Z" fill="#000000" fill-rule="nonzero" opacity="1" stroke="none"/>
<path d="M956.28 342.194L963.982 342.194L963.982 387.323L956.28 387.323L956.28 342.194ZM959.7 342.194L976.359 342.194L976.359 349.7L959.7 349.7L959.7 342.194ZM959.7 361.166L974.809 361.166L974.809 368.548L959.7 368.548L959.7 361.166ZM959.7 379.868L976.359 379.868L976.359 387.323L959.7 387.323L959.7 379.868Z" fill="#000000" fill-rule="nonzero" opacity="1" stroke="none"/>
<path d="M983.569 342.194L1006.21 342.194L1006.21 349.576L983.569 349.576L983.569 342.194ZM990.951 345.984L998.653 345.984L998.653 387.323L990.951 387.323L990.951 345.984Z" fill="#000000" fill-rule="nonzero" opacity="1" stroke="none"/>
<path d="M1029.63 342.194L1035.59 342.194L1040.51 373.568L1042.77 342.194L1050.6 342.194L1044.74 387.323L1037.36 387.323L1032.76 358.091L1027.84 387.323L1020.45 387.323L1014.65 342.121L1022.6 342.121L1024.86 373.494L1029.63 342.194Z" fill="#000000" fill-rule="nonzero" opacity="1" stroke="none"/>
<path d="M1063.12 386.585C1061.46 385.811 1060.08 384.549 1059.16 382.968C1058.21 381.202 1057.73 379.217 1057.78 377.21L1057.78 352.357C1057.73 350.35 1058.21 348.365 1059.16 346.599C1060.07 345.005 1061.46 343.732 1063.12 342.957C1067.11 341.317 1071.59 341.317 1075.57 342.957C1077.25 343.725 1078.64 344.999 1079.56 346.599C1080.51 348.367 1080.97 350.352 1080.91 352.357L1080.91 377.21C1080.97 379.215 1080.51 381.2 1079.56 382.968C1078.64 384.556 1077.24 385.819 1075.57 386.585C1071.6 388.293 1067.1 388.293 1063.12 386.585ZM1071.39 379.671C1071.95 379.385 1072.41 378.917 1072.67 378.342C1072.98 377.681 1073.13 376.956 1073.11 376.226L1073.11 353.292C1073.13 352.57 1072.98 351.852 1072.67 351.201C1072.4 350.63 1071.95 350.164 1071.39 349.872C1070.76 349.542 1070.06 349.381 1069.35 349.404C1068.65 349.381 1067.95 349.542 1067.33 349.872C1066.78 350.178 1066.34 350.641 1066.05 351.201C1065.76 351.859 1065.62 352.573 1065.63 353.292L1065.63 376.226C1065.61 376.953 1065.76 377.676 1066.05 378.342C1066.33 378.906 1066.78 379.37 1067.33 379.671C1067.95 380.001 1068.65 380.162 1069.35 380.138C1070.06 380.162 1070.76 380 1071.39 379.671Z" fill="#000000" fill-rule="nonzero" opacity="1" stroke="none"/>
<path d="M1090.93 342.145L1098.48 342.145L1098.48 387.323L1090.93 387.323L1090.93 342.145ZM1094.37 360.871L1102.52 360.871C1103.11 360.888 1103.7 360.761 1104.24 360.502C1104.71 360.289 1105.09 359.936 1105.35 359.493C1105.61 359.002 1105.75 358.452 1105.74 357.894L1105.74 352.972C1105.75 352.359 1105.62 351.752 1105.35 351.201C1105.11 350.712 1104.72 350.314 1104.24 350.069C1103.71 349.789 1103.12 349.653 1102.52 349.675L1094.37 349.675L1094.37 342.293L1102.05 342.293C1104.21 342.232 1106.35 342.644 1108.33 343.499C1109.98 344.228 1111.37 345.458 1112.29 347.017C1113.24 348.703 1113.72 350.617 1113.67 352.554L1113.67 357.795C1113.72 359.787 1113.24 361.756 1112.29 363.504C1111.36 365.092 1109.97 366.355 1108.3 367.121C1106.34 368.007 1104.2 368.436 1102.05 368.376L1094.37 368.376L1094.37 360.871ZM1100.65 366.875L1107.71 365.448L1114.92 387.397L1106.65 387.397L1100.65 366.875Z" fill="#000000" fill-rule="nonzero" opacity="1" stroke="none"/>
<path d="M1124.79 342.194L1132.49 342.194L1132.49 387.323L1124.79 387.323L1124.79 342.194ZM1130.92 366.481L1139.7 342.194L1148.41 342.194L1130.87 380.212L1130.92 366.481ZM1133.74 362.692L1139.01 358.066L1149.84 387.397L1141.4 387.397L1133.74 362.692Z" fill="#000000" fill-rule="nonzero" opacity="1" stroke="none"/>
<path d="M1172.16 342.194L1180.33 342.194L1184.66 373.396L1188.99 342.194L1197.16 342.194L1188.81 387.323L1180.5 387.323L1172.16 342.194Z" fill="#000000" fill-rule="nonzero" opacity="1" stroke="none"/>
<path d="M1212.39 387.323L1204.69 387.323L1204.69 342.194L1212.39 342.194L1212.39 387.323Z" fill="#000000" fill-rule="nonzero" opacity="1" stroke="none"/>
<path d="M1227.03 386.536C1225.37 385.684 1224 384.345 1223.12 382.697C1222.16 380.843 1221.7 378.777 1221.76 376.693L1221.76 374.233L1229.44 374.233L1229.44 376.693C1229.39 377.68 1229.73 378.646 1230.4 379.375C1231.13 380.046 1232.1 380.393 1233.08 380.335C1234.04 380.404 1234.98 380.065 1235.67 379.4C1236.31 378.671 1236.65 377.717 1236.6 376.743L1236.6 372.805C1236.62 372.023 1236.37 371.259 1235.89 370.64C1235.4 369.996 1234.79 369.453 1234.09 369.041C1233.35 368.598 1232.37 368.056 1231.09 367.441L1230.87 367.441L1230.62 367.318L1230.23 367.146C1228.71 366.403 1227.28 365.504 1225.95 364.464C1224.7 363.486 1223.68 362.242 1222.97 360.822C1222.13 359.083 1221.73 357.166 1221.79 355.236L1221.79 352.898C1221.73 350.842 1222.19 348.803 1223.12 346.968C1223.98 345.346 1225.32 344.03 1226.96 343.203C1228.84 342.28 1230.91 341.832 1233.01 341.899C1235.07 341.837 1237.12 342.285 1238.96 343.203C1240.59 344.051 1241.92 345.384 1242.75 347.017C1243.64 348.84 1244.09 350.846 1244.06 352.874L1244.06 355.335L1236.38 355.335L1236.38 352.874C1236.44 351.892 1236.12 350.924 1235.49 350.167C1234.85 349.504 1233.96 349.146 1233.03 349.183C1232.13 349.156 1231.25 349.473 1230.57 350.069C1229.93 350.721 1229.6 351.617 1229.66 352.529L1229.66 355.556C1229.64 356.346 1229.88 357.121 1230.33 357.771C1230.78 358.391 1231.35 358.917 1232 359.321C1232.69 359.764 1233.62 360.256 1234.81 360.871L1235.52 361.216L1236.23 361.585L1236.23 361.585L1236.23 361.585C1237.69 362.301 1239.08 363.124 1240.42 364.045C1241.54 364.932 1242.46 366.047 1243.12 367.318C1243.92 369.008 1244.3 370.864 1244.23 372.732L1244.23 376.496C1244.29 378.577 1243.83 380.64 1242.9 382.501C1242.05 384.148 1240.71 385.49 1239.06 386.339C1237.19 387.269 1235.12 387.726 1233.03 387.668C1230.97 387.777 1228.91 387.389 1227.03 386.536Z" fill="#000000" fill-rule="nonzero" opacity="1" stroke="none"/>
<path d="M1258.18 386.511C1256.57 385.615 1255.28 384.25 1254.47 382.599C1253.58 380.671 1253.16 378.567 1253.21 376.447L1253.21 342.194L1260.94 342.194L1260.94 376.644C1260.91 377.535 1261.2 378.406 1261.75 379.105C1262.32 379.731 1263.14 380.065 1263.99 380.015C1264.85 380.059 1265.68 379.727 1266.28 379.105C1266.83 378.406 1267.12 377.535 1267.09 376.644L1267.09 342.194L1274.84 342.194L1274.84 376.447C1274.89 378.572 1274.45 380.679 1273.54 382.599C1272.73 384.255 1271.43 385.621 1269.82 386.511C1266.15 388.316 1261.85 388.316 1258.18 386.511Z" fill="#000000" fill-rule="nonzero" opacity="1" stroke="none"/>
<path d="M1291.7 342.194L1297.11 342.194L1308.04 387.323L1300.38 387.323L1294.53 357.795L1288.69 387.323L1280.97 387.323L1291.7 342.194ZM1288.35 373.15L1300.65 373.15L1300.65 380.36L1288.35 380.36L1288.35 373.15Z" fill="#000000" fill-rule="nonzero" opacity="1" stroke="none"/>
<path d="M1316.38 342.194L1324.08 342.194L1324.08 387.323L1316.38 387.323L1316.38 342.194ZM1319.53 379.941L1335.82 379.941L1335.82 387.323L1319.53 387.323L1319.53 379.941Z" fill="#000000" fill-rule="nonzero" opacity="1" stroke="none"/>
<path d="M1351.98 387.323L1344.28 387.323L1344.28 342.194L1351.98 342.194L1351.98 387.323Z" fill="#000000" fill-rule="nonzero" opacity="1" stroke="none"/>
<path d="M1380.67 349.035L1369.55 379.941L1381.09 379.941L1381.09 387.323L1361.63 387.323L1361.63 380.483L1372.92 349.503L1362.17 349.503L1362.17 342.121L1380.77 342.121L1380.67 349.035Z" fill="#000000" fill-rule="nonzero" opacity="1" stroke="none"/>
<path d="M1390.22 342.194L1397.92 342.194L1397.92 387.323L1390.22 387.323L1390.22 342.194ZM1393.64 342.194L1410.3 342.194L1410.3 349.7L1393.64 349.7L1393.64 342.194ZM1393.64 361.166L1408.75 361.166L1408.75 368.548L1393.64 368.548L1393.64 361.166ZM1393.64 379.868L1410.3 379.868L1410.3 387.323L1393.64 387.323L1393.64 379.868Z" fill="#000000" fill-rule="nonzero" opacity="1" stroke="none"/>
<path d="M1419.38 342.145L1426.94 342.145L1426.94 387.323L1419.38 387.323L1419.38 342.145ZM1422.83 360.871L1431.07 360.871C1431.66 360.885 1432.25 360.759 1432.79 360.502C1433.26 360.289 1433.64 359.936 1433.9 359.493C1434.16 359 1434.28 358.45 1434.27 357.894L1434.27 352.972C1434.29 352.361 1434.16 351.754 1433.9 351.201C1433.66 350.712 1433.28 350.314 1432.79 350.069C1432.26 349.792 1431.67 349.657 1431.07 349.675L1422.92 349.675L1422.92 342.293L1430.6 342.293C1432.76 342.232 1434.9 342.644 1436.88 343.499C1438.53 344.228 1439.92 345.458 1440.84 347.017C1441.79 348.705 1442.25 350.62 1442.19 352.554L1442.19 357.795C1442.25 359.784 1441.79 361.754 1440.84 363.504C1439.91 365.092 1438.52 366.355 1436.85 367.121C1434.89 368.002 1432.75 368.431 1430.6 368.376L1422.92 368.376L1422.83 360.871ZM1429.1 366.875L1436.16 365.448L1443.37 387.323L1435.11 387.323L1429.1 366.875Z" fill="#000000" fill-rule="nonzero" opacity="1" stroke="none"/>
<path d="M845.574 312.765L752.609 218.127L752.609 312.765L715.403 312.765L715.403 174.966L755.832 174.966L848.871 270.023L848.871 175.015L885.781 175.015L885.781 312.814L845.574 312.765Z" fill="#000000" fill-rule="nonzero" opacity="1" stroke="none"/>
<path d="M1058.4 312.765L1015.21 312.765L945.527 174.966L986.916 174.966L1037.04 278.635L1087.09 174.966L1128.6 174.966L1058.4 312.765Z" fill="#000000" fill-rule="nonzero" opacity="1" stroke="none"/>
<path d="M1188.13 312.765L1188.13 174.966L1225.31 174.966L1225.31 312.765L1188.13 312.765Z" fill="#000000" fill-rule="nonzero" opacity="1" stroke="none"/>
<path d="M1297.38 312.765L1297.38 283.975L1387.93 205.233L1300.09 205.233L1300.09 175.015L1441.38 175.015L1441.38 200.311L1346.72 282.646L1443.37 282.646L1443.37 312.765L1297.38 312.765Z" fill="#000000" fill-rule="nonzero" opacity="1" stroke="none"/>
<path d="M143.54 289.733L302.352 368.327L128.382 250.46L143.54 289.733Z" fill="#cccccc" fill-rule="nonzero" opacity="1" stroke="none"/>
<path d="M92.0622 305.358L289.68 374.503L74.2222 267.882L92.0622 305.358Z" fill="#cccccc" fill-rule="nonzero" opacity="1" stroke="none"/>
<path d="M618.477 250.46L444.531 368.327L603.319 289.708L618.477 250.46Z" fill="#cccccc" fill-rule="nonzero" opacity="1" stroke="none"/>
<path d="M457.203 374.503L654.797 305.358L672.612 267.882L457.203 374.503Z" fill="#cccccc" fill-rule="nonzero" opacity="1" stroke="none"/>
<path d="M259.906 117.977C272.286 117.977 282.322 107.94 282.322 95.5599C282.322 83.1794 272.286 73.143 259.906 73.143C247.525 73.143 237.489 83.1794 237.489 95.5599C237.502 107.935 247.531 117.963 259.906 117.977Z" fill="#7d62fb" fill-rule="nonzero" opacity="1" stroke="none"/>
<path d="M234.364 235.844C234.364 218.571 248.366 204.568 265.639 204.568C282.912 204.568 296.914 218.571 296.914 235.844C296.914 253.116 282.912 267.119 265.639 267.119C248.366 267.119 234.364 253.116 234.364 235.844Z" fill="#7d62fb" fill-rule="nonzero" opacity="1" stroke="none"/>
<path d="M404.717 160.424C404.717 143.151 390.715 129.148 373.442 129.148C356.169 129.148 342.166 143.151 342.166 160.424C342.166 177.696 356.169 191.699 373.442 191.699C390.709 191.685 404.704 177.691 404.717 160.424Z" fill="#7d62fb" fill-rule="nonzero" opacity="1" stroke="none"/>
<path d="M484.739 181.29C472.042 181.29 461.751 191.585 461.756 204.281C461.76 216.977 472.059 227.265 484.755 227.256C497.451 227.247 507.735 216.945 507.721 204.248C507.694 191.571 497.416 181.304 484.739 181.29Z" fill="#7d62fb" fill-rule="nonzero" opacity="1" stroke="none"/>
<path d="M499.7 88.6946C499.713 76.1206 489.529 65.9177 476.955 65.9086C464.381 65.8996 454.181 76.0878 454.177 88.6618C454.172 101.236 464.364 111.431 476.938 111.431C489.499 111.431 499.686 101.256 499.7 88.6946Z" fill="#7d62fb" fill-rule="nonzero" opacity="1" stroke="none"/>
<path d="M389.879 278.487C377.186 278.487 366.896 288.777 366.896 301.47C366.896 314.163 377.186 324.453 389.879 324.453C402.572 324.453 412.862 314.163 412.862 301.47C412.862 288.777 402.572 278.487 389.879 278.487Z" fill="#7d62fb" fill-rule="nonzero" opacity="1" stroke="none"/>
<path d="M244.182 116.377L241.869 114.581C239.81 112.648 238.227 110.264 237.243 107.617C198.226 144.72 176.133 196.2 176.119 250.042C176.105 260.953 177.036 271.845 178.9 282.597C179.429 285.628 182.316 287.656 185.347 287.126C188.379 286.596 190.406 283.708 189.875 280.677C188.137 270.558 187.273 260.309 187.291 250.042C187.29 199.605 207.832 151.343 244.182 116.377Z" fill="#000000" fill-rule="nonzero" opacity="1" stroke="none"/>
<path d="M373.442 52.6701C340.972 52.6402 309.003 60.6727 280.403 76.0466C280.904 76.6727 281.364 77.3302 281.781 78.0152C282.618 79.9345 283.577 82.0753 284.242 84.0438L284.242 84.2407L284.389 84.7574C284.401 84.9131 284.401 85.0693 284.389 85.225C284.389 85.225 284.389 85.225 284.389 85.3726L284.389 86.3077C336.291 58.0541 398.574 56.3255 451.962 81.657C452.683 77.9554 454.231 74.4645 456.49 71.4451C430.517 59.1767 402.166 52.7672 373.442 52.6701Z" fill="#000000" fill-rule="nonzero" opacity="1" stroke="none"/>
<path d="M502.185 100.85L499.011 104.96C497.541 106.423 495.886 107.689 494.089 108.724C535.579 143.95 559.509 195.616 559.544 250.042C559.559 260.317 558.694 270.574 556.96 280.702C556.703 282.161 557.039 283.663 557.894 284.873C558.749 286.083 560.051 286.902 561.512 287.149L562.472 287.149C565.181 287.141 567.494 285.191 567.959 282.523C569.801 271.769 570.723 260.878 570.715 249.968C570.668 192.656 545.646 138.21 502.185 100.85Z" fill="#000000" fill-rule="nonzero" opacity="1" stroke="none"/>
<path d="M373.442 447.34C306.069 447.5 243.31 413.139 207.149 356.294C205.937 354.615 205.754 352.403 206.674 350.547C207.593 348.691 209.463 347.497 211.534 347.443C213.604 347.389 215.534 348.485 216.548 350.29C250.74 403.846 309.89 436.26 373.429 436.26C436.969 436.26 496.119 403.846 530.311 350.29C531.325 348.485 533.255 347.389 535.325 347.443C537.396 347.497 539.266 348.691 540.185 350.547C541.105 352.403 540.922 354.615 539.71 356.294C503.553 413.132 440.805 447.492 373.442 447.34Z" fill="#000000" fill-rule="nonzero" opacity="1" stroke="none"/>
<path d="M259.906 129.148C241.352 129.162 226.302 114.13 226.293 95.5762C226.284 77.0227 241.319 61.976 259.873 61.9715C278.426 61.9669 293.469 77.0063 293.469 95.5598C293.456 114.095 278.441 129.121 259.906 129.148ZM259.906 73.143C247.525 73.143 237.489 83.1793 237.489 95.5598C237.489 107.94 247.525 117.977 259.906 117.977C272.286 117.977 282.322 107.94 282.322 95.5598C282.309 83.185 272.28 73.1566 259.906 73.143Z" fill="#000000" fill-rule="nonzero" opacity="1" stroke="none"/>
<path d="M265.639 278.29C242.196 278.29 223.192 259.286 223.192 235.844C223.192 212.401 242.196 193.397 265.639 193.397C289.082 193.397 308.086 212.401 308.086 235.844C308.072 259.281 289.076 278.277 265.639 278.29ZM265.639 204.47C248.349 204.456 234.324 218.464 234.315 235.753C234.305 253.043 248.317 267.065 265.606 267.07C282.896 267.074 296.914 253.059 296.914 235.77C296.86 218.527 282.882 204.571 265.639 204.544L265.639 204.47Z" fill="#000000" fill-rule="nonzero" opacity="1" stroke="none"/>
<path d="M373.442 202.772C349.999 202.772 330.995 183.768 330.995 160.325C330.995 136.882 349.999 117.878 373.442 117.878C396.884 117.878 415.889 136.882 415.889 160.325C415.861 183.757 396.873 202.745 373.442 202.772ZM373.442 128.951C356.169 128.951 342.166 142.954 342.166 160.227C342.166 177.5 356.169 191.502 373.442 191.502C390.715 191.502 404.717 177.5 404.717 160.227C404.595 143.036 390.633 129.161 373.442 129.148L373.442 128.951Z" fill="#000000" fill-rule="nonzero" opacity="1" stroke="none"/>
<path d="M389.879 335.649C371.013 335.649 355.72 320.353 355.725 301.487C355.729 282.62 371.029 267.331 389.896 267.34C408.762 267.349 424.047 282.653 424.033 301.519C424.006 320.367 408.727 335.636 389.879 335.649ZM389.879 278.537C377.186 278.537 366.896 288.826 366.896 301.519C366.896 314.212 377.186 324.502 389.879 324.502C402.572 324.502 412.862 314.212 412.862 301.519C412.875 295.415 410.459 289.557 406.148 285.236C401.836 280.915 395.983 278.487 389.879 278.487L389.879 278.537Z" fill="#000000" fill-rule="nonzero" opacity="1" stroke="none"/>
<path d="M484.739 238.403C465.872 238.416 450.569 223.131 450.56 204.265C450.551 185.399 465.84 170.099 484.706 170.094C503.572 170.09 518.868 185.382 518.868 204.248C518.841 223.091 503.581 238.362 484.739 238.403ZM484.739 181.29C472.042 181.29 461.751 191.585 461.756 204.281C461.76 216.977 472.059 227.265 484.755 227.256C497.451 227.247 507.735 216.945 507.721 204.248C507.694 191.571 497.416 181.304 484.739 181.29Z" fill="#000000" fill-rule="nonzero" opacity="1" stroke="none"/>
<path d="M476.938 122.603C458.202 122.644 442.983 107.48 442.956 88.7439C442.929 70.0073 458.103 54.8 476.84 54.7864C495.576 54.7728 510.773 69.958 510.773 88.6946C510.759 107.387 495.631 122.549 476.938 122.603ZM476.938 66.007C464.367 66.007 454.177 76.1976 454.177 88.7684C454.177 101.339 464.367 111.53 476.938 111.53C489.509 111.53 499.7 101.339 499.7 88.7684C499.713 82.7209 497.321 76.9163 493.052 72.6332C488.783 68.35 482.986 65.9397 476.938 65.9332L476.938 66.007Z" fill="#000000" fill-rule="nonzero" opacity="1" stroke="none"/>
<path d="M456.441 108.626L456.441 108.626L456.293 108.454C455.555 107.691 454.448 105.993 454.226 105.821C454.005 105.649 452.799 104.098 452.208 103.188L452.208 102.966C451.864 102.278 451.396 101.219 450.953 100.137L399.279 135.94C402.069 138.464 404.306 141.539 405.849 144.97L457.179 109.266L456.441 108.626Z" fill="#000000" fill-rule="nonzero" opacity="1" stroke="none"/>
<path d="M479.62 118.518C477.495 118.513 475.379 118.24 473.321 117.706L477.406 178.411C481.085 177.523 484.912 177.439 488.626 178.165L484.566 117.952C482.94 118.3 481.283 118.489 479.62 118.518Z" fill="#000000" fill-rule="nonzero" opacity="1" stroke="none"/>
<path d="M345.661 138.13L283.75 102.745C283.064 104.584 282.241 106.369 281.289 108.085C280.541 109.228 279.719 110.321 278.828 111.357C278.582 111.702 278.287 112.046 278.016 112.391L340.985 148.342C341.892 144.676 343.478 141.212 345.661 138.13Z" fill="#000000" fill-rule="nonzero" opacity="1" stroke="none"/>
<path d="M269.798 200.754L266.5 120.487C266.205 120.487 265.934 120.757 265.614 120.856L259.118 121.717C257.852 121.651 256.594 121.487 255.353 121.225L258.626 200.656C262.323 199.988 266.113 200.021 269.798 200.754Z" fill="#000000" fill-rule="nonzero" opacity="1" stroke="none"/>
<path d="M364.682 291.972C365.664 289.067 367.356 286.454 369.603 284.368L297.972 246.548C297.284 248.59 296.275 250.755 295.389 252.699C295.213 253.092 295.008 253.47 294.774 253.831C294.183 254.717 293.469 255.554 292.78 256.415L364.14 294.039C364.285 293.341 364.466 292.651 364.682 291.972Z" fill="#000000" fill-rule="nonzero" opacity="1" stroke="none"/>
<path d="M403.733 279.619C405.582 280.877 407.357 282.24 409.048 283.704C409.356 283.943 409.637 284.215 409.885 284.516L411.804 286.977L467.908 229.47C464.961 227.009 462.684 223.844 461.288 220.267L403.511 279.472L403.733 279.619Z" fill="#000000" fill-rule="nonzero" opacity="1" stroke="none"/>
<path d="M292.904 216.798C293.493 217.575 294.02 218.398 294.478 219.259C294.872 220.046 295.167 220.858 295.512 221.719L348.318 184.809C347.487 183.606 346.739 182.348 346.079 181.044C344.835 179.119 343.804 177.064 343.003 174.917L289.434 212.393C290.64 213.845 291.772 215.321 292.904 216.798Z" fill="#000000" fill-rule="nonzero" opacity="1" stroke="none"/>
<path d="M462.863 189.632L407.424 167.806C406.424 171.445 404.755 174.866 402.502 177.894L459.836 200.484C460.062 196.692 461.094 192.993 462.863 189.632Z" fill="#000000" fill-rule="nonzero" opacity="1" stroke="none"/>
<path d="M381.907 276.937L382.079 276.937L382.596 276.814C384.895 276.308 387.232 275.995 389.584 275.879L390.076 275.879L392.537 276.125L383.161 195.39C379.834 196.7 376.303 197.417 372.728 197.506L372.138 197.506L381.439 277.208L381.907 276.937Z" fill="#000000" fill-rule="nonzero" opacity="1" stroke="none"/>
<path d="M373.442 415.326C370.839 415.331 368.578 413.538 367.99 411.003C367.402 408.468 368.642 405.862 370.981 404.721L682.11 250.731C684.226 249.752 686.729 250.197 688.377 251.846C690.026 253.494 690.471 255.997 689.492 258.113L663.754 312.248C663.115 313.596 661.963 314.633 660.555 315.127L375.115 415.006C374.578 415.203 374.013 415.311 373.442 415.326ZM672.612 267.882L457.179 374.503L654.797 305.358L672.612 267.882Z" fill="#000000" fill-rule="nonzero" opacity="1" stroke="none"/>
<path d="M373.442 415.326C371.585 415.334 369.847 414.41 368.816 412.865C367.087 410.317 367.747 406.849 370.292 405.114L626.966 231.193C628.985 229.833 631.653 229.936 633.56 231.45C635.467 232.963 636.174 235.537 635.308 237.812L612.965 295.737C612.328 297.705 610.655 299.16 608.618 299.518C606.581 299.876 604.512 299.079 603.242 297.446C601.972 295.814 601.708 293.612 602.556 291.726L618.477 250.435L376.567 414.391C375.644 415.012 374.554 415.338 373.442 415.326Z" fill="#000000" fill-rule="nonzero" opacity="1" stroke="none"/>
<path d="M373.417 415.326C372.788 415.328 372.163 415.22 371.572 415.006L86.1319 315.127C84.7151 314.648 83.5581 313.607 82.9331 312.248L57.1697 258.113C56.1608 255.964 56.6204 253.412 58.3155 251.75C60.0106 250.089 62.5709 249.68 64.6994 250.731L375.829 404.721C378.167 405.862 379.408 408.468 378.82 411.003C378.232 413.538 375.97 415.331 373.368 415.326L373.417 415.326ZM92.0622 305.358L289.68 374.503L74.2222 267.882L92.0622 305.358Z" fill="#000000" fill-rule="nonzero" opacity="1" stroke="none"/>
<path d="M373.442 415.326C372.319 415.335 371.22 415 370.292 414.366L128.382 250.46L144.327 291.75C145.433 294.631 143.995 297.863 141.115 298.97C138.235 300.077 135.003 298.641 133.894 295.761L111.551 237.837C110.685 235.562 111.392 232.987 113.299 231.474C115.206 229.961 117.874 229.857 119.893 231.218L376.567 405.139C379.112 406.874 379.772 410.341 378.043 412.89C377.017 414.424 375.288 415.34 373.442 415.326Z" fill="#000000" fill-rule="nonzero" opacity="1" stroke="none"/>
</g>
</svg>
