<?xml version="1.0" encoding="UTF-8" standalone="no"?>
<!DOCTYPE svg PUBLIC "-//W3C//DTD SVG 1.1//EN" "http://www.w3.org/Graphics/SVG/1.1/DTD/svg11.dtd">
<!-- Created with Vectornator (http://vectornator.io/) -->
<svg height="100%" stroke-miterlimit="10" style="fill-rule:nonzero;clip-rule:evenodd;stroke-linecap:round;stroke-linejoin:round;" version="1.1" viewBox="0 0 1008 612" width="100%" xml:space="preserve" xmlns="http://www.w3.org/2000/svg" xmlns:xlink="http://www.w3.org/1999/xlink">
<defs/>
<g id="Layer-1">
<path d="M165.984 364.543L399.587 480.15L143.688 306.776L165.984 364.543Z" fill="#cccccc" fill-rule="nonzero" opacity="1" stroke="none"/>
<path d="M90.2637 387.527L380.946 489.235L64.0223 332.402L90.2637 387.527Z" fill="#cccccc" fill-rule="nonzero" opacity="1" stroke="none"/>
<path d="M864.585 306.776L608.722 480.15L842.289 364.507L864.585 306.776Z" fill="#cccccc" fill-rule="nonzero" opacity="1" stroke="none"/>
<path d="M627.362 489.235L918.009 387.527L944.214 332.402L627.362 489.235Z" fill="#cccccc" fill-rule="nonzero" opacity="1" stroke="none"/>
<path d="M337.15 111.902C355.361 111.902 370.124 97.139 370.124 78.9281C370.124 60.7173 355.361 45.9544 337.15 45.9544C318.939 45.9544 304.177 60.7173 304.177 78.9281C304.196 97.1307 318.948 111.882 337.15 111.902Z" fill="#7d62fb" fill-rule="nonzero" opacity="1" stroke="none"/>
<path d="M299.58 285.276C299.58 259.869 320.176 239.272 345.584 239.272C370.991 239.272 391.588 259.869 391.588 285.276C391.588 310.683 370.991 331.28 345.584 331.28C320.176 331.28 299.58 310.683 299.58 285.276Z" fill="#7d62fb" fill-rule="nonzero" opacity="1" stroke="none"/>
<path d="M550.158 174.338C550.158 148.931 529.562 128.334 504.154 128.334C478.747 128.334 458.15 148.931 458.15 174.338C458.15 199.746 478.747 220.342 504.154 220.342C529.553 220.322 550.138 199.737 550.158 174.338Z" fill="#7d62fb" fill-rule="nonzero" opacity="1" stroke="none"/>
<path d="M667.864 205.032C649.189 205.032 634.052 220.175 634.058 238.85C634.065 257.525 649.213 272.657 667.889 272.644C686.564 272.631 701.691 257.477 701.671 238.802C701.631 220.153 686.513 205.052 667.864 205.032Z" fill="#7d62fb" fill-rule="nonzero" opacity="1" stroke="none"/>
<path d="M689.871 68.8297C689.891 50.3343 674.91 35.3265 656.415 35.3131C637.919 35.2998 622.917 50.286 622.91 68.7815C622.904 87.2769 637.895 102.274 656.391 102.274C674.867 102.274 689.851 87.3063 689.871 68.8297Z" fill="#7d62fb" fill-rule="nonzero" opacity="1" stroke="none"/>
<path d="M528.333 348.002C509.662 348.002 494.526 363.138 494.526 381.808C494.526 400.479 509.662 415.615 528.333 415.615C547.003 415.615 562.139 400.479 562.139 381.808C562.139 363.138 547.003 348.002 528.333 348.002Z" fill="#7d62fb" fill-rule="nonzero" opacity="1" stroke="none"/>
<path d="M314.022 109.549L310.619 106.907C307.591 104.063 305.262 100.557 303.815 96.6638C246.424 151.24 213.926 226.963 213.906 306.161C213.886 322.211 215.254 338.233 217.996 354.047C218.774 358.506 223.021 361.489 227.48 360.709C231.939 359.93 234.92 355.682 234.139 351.223C231.583 336.339 230.312 321.263 230.339 306.161C230.338 231.971 260.553 160.981 314.022 109.549Z" fill="#000000" fill-rule="nonzero" opacity="1" stroke="none"/>
<path d="M504.154 15.8401C456.393 15.7962 409.369 27.6114 367.301 50.2254C368.038 51.1463 368.715 52.1135 369.328 53.121C370.558 55.9443 371.97 59.0932 372.947 61.9888L372.947 62.2784L373.164 63.0385C373.181 63.2674 373.181 63.4973 373.164 63.7262C373.164 63.7262 373.164 63.7262 373.164 63.9434L373.164 65.3188C449.508 23.7596 541.122 21.217 619.653 58.4779C620.713 53.0331 622.989 47.8982 626.313 43.457C588.109 25.411 546.405 15.983 504.154 15.8401Z" fill="#000000" fill-rule="nonzero" opacity="1" stroke="none"/>
<path d="M693.527 86.71L688.858 92.7546C686.696 94.9075 684.262 96.7692 681.619 98.2924C742.647 150.106 777.847 226.104 777.898 306.161C777.92 321.275 776.648 336.363 774.097 351.26C773.72 353.406 774.214 355.615 775.471 357.395C776.729 359.175 778.644 360.38 780.793 360.743L782.205 360.743C786.189 360.732 789.592 357.864 790.276 353.938C792.986 338.12 794.342 322.1 794.33 306.052C794.26 221.75 757.455 141.664 693.527 86.71Z" fill="#000000" fill-rule="nonzero" opacity="1" stroke="none"/>
<path d="M504.154 596.373C405.054 596.609 312.74 546.067 259.548 462.451C257.766 459.981 257.497 456.727 258.849 453.997C260.202 451.268 262.953 449.51 265.998 449.431C269.043 449.352 271.882 450.964 273.375 453.619C323.668 532.397 410.673 580.075 504.136 580.075C597.599 580.075 684.604 532.397 734.898 453.619C736.39 450.964 739.229 449.352 742.274 449.431C745.319 449.51 748.071 451.268 749.423 453.997C750.775 456.727 750.506 459.98 748.724 462.451C695.54 546.056 603.242 596.596 504.154 596.373Z" fill="#000000" fill-rule="nonzero" opacity="1" stroke="none"/>
<path d="M337.15 128.334C309.859 128.354 287.721 106.243 287.708 78.9522C287.694 51.6612 309.811 29.5285 337.102 29.5218C364.393 29.5152 386.52 51.637 386.52 78.9281C386.5 106.192 364.414 128.294 337.15 128.334ZM337.15 45.9544C318.939 45.9544 304.177 60.7172 304.177 78.9281C304.176 97.1389 318.939 111.902 337.15 111.902C355.361 111.902 370.124 97.1389 370.124 78.9281C370.104 60.7255 355.353 45.9744 337.15 45.9544Z" fill="#000000" fill-rule="nonzero" opacity="1" stroke="none"/>
<path d="M345.584 347.713C311.101 347.713 283.147 319.759 283.147 285.276C283.147 250.793 311.101 222.84 345.584 222.84C380.066 222.84 408.02 250.793 408.02 285.276C408 319.751 380.058 347.693 345.584 347.713ZM345.584 239.127C320.152 239.107 299.521 259.711 299.507 285.143C299.494 310.575 320.103 331.201 345.535 331.208C370.967 331.214 391.588 310.6 391.588 285.168C391.508 259.805 370.946 239.276 345.584 239.236L345.584 239.127Z" fill="#000000" fill-rule="nonzero" opacity="1" stroke="none"/>
<path d="M504.154 236.63C469.672 236.63 441.718 208.676 441.718 174.194C441.718 139.711 469.672 111.757 504.154 111.757C538.637 111.757 566.591 139.711 566.591 174.194C566.551 208.66 538.62 236.59 504.154 236.63ZM504.154 128.045C478.747 128.045 458.15 148.641 458.15 174.049C458.15 199.456 478.747 220.053 504.154 220.053C529.562 220.053 550.158 199.456 550.158 174.049C549.979 148.763 529.441 128.354 504.154 128.334L504.154 128.045Z" fill="#000000" fill-rule="nonzero" opacity="1" stroke="none"/>
<path d="M528.333 432.083C500.582 432.083 478.087 409.583 478.094 381.833C478.1 354.082 500.606 331.593 528.357 331.606C556.107 331.619 578.591 354.13 578.571 381.881C578.531 409.604 556.056 432.063 528.333 432.083ZM528.333 348.075C509.662 348.075 494.526 363.21 494.526 381.881C494.526 400.551 509.662 415.687 528.333 415.687C547.003 415.687 562.139 400.551 562.139 381.881C562.158 372.902 558.605 364.285 552.263 357.929C545.921 351.574 537.311 348.002 528.333 348.002L528.333 348.075Z" fill="#000000" fill-rule="nonzero" opacity="1" stroke="none"/>
<path d="M667.864 289.04C640.114 289.06 617.603 266.577 617.59 238.826C617.576 211.075 640.065 188.57 667.816 188.563C695.567 188.556 718.067 211.051 718.067 238.802C718.027 266.517 695.58 288.981 667.864 289.04ZM667.864 205.032C649.189 205.032 634.052 220.175 634.058 238.85C634.065 257.525 649.213 272.657 667.889 272.644C686.564 272.631 701.691 257.477 701.671 238.802C701.631 220.153 686.513 205.052 667.864 205.032Z" fill="#000000" fill-rule="nonzero" opacity="1" stroke="none"/>
<path d="M656.391 118.707C628.83 118.767 606.445 96.4626 606.405 68.9023C606.365 41.342 628.686 18.9731 656.246 18.9531C683.806 18.933 706.159 41.2694 706.159 68.8297C706.139 96.3254 683.886 118.627 656.391 118.707ZM656.391 35.4579C637.9 35.4579 622.91 50.4476 622.91 68.9383C622.91 87.4291 637.9 102.419 656.391 102.419C674.881 102.419 689.871 87.4291 689.871 68.9383C689.89 60.0429 686.373 51.5047 680.093 45.2045C673.813 38.9043 665.286 35.3589 656.391 35.3493L656.391 35.4579Z" fill="#000000" fill-rule="nonzero" opacity="1" stroke="none"/>
<path d="M626.24 98.1477L626.24 98.1477L626.023 97.8943C624.937 96.7722 623.308 94.2748 622.983 94.0214C622.657 93.7681 620.883 91.4878 620.015 90.1486L620.015 89.8228C619.508 88.8093 618.82 87.2529 618.169 85.6604L542.159 138.324C546.262 142.038 549.553 146.561 551.823 151.608L627.326 99.0888L626.24 98.1477Z" fill="#000000" fill-rule="nonzero" opacity="1" stroke="none"/>
<path d="M660.336 112.698C657.21 112.69 654.096 112.289 651.07 111.504L657.079 200.797C662.49 199.49 668.12 199.367 673.583 200.435L667.611 111.866C665.219 112.377 662.782 112.656 660.336 112.698Z" fill="#000000" fill-rule="nonzero" opacity="1" stroke="none"/>
<path d="M463.29 141.546L372.223 89.4971C371.214 92.2018 370.004 94.8272 368.604 97.3514C367.503 99.0328 366.294 100.641 364.984 102.165C364.622 102.672 364.188 103.179 363.79 103.686L456.413 156.567C457.747 151.174 460.08 146.079 463.29 141.546Z" fill="#000000" fill-rule="nonzero" opacity="1" stroke="none"/>
<path d="M351.701 233.662L346.851 115.594C346.416 115.594 346.018 115.992 345.548 116.137L335.992 117.403C334.13 117.307 332.278 117.065 330.454 116.68L335.268 233.517C340.706 232.534 346.281 232.583 351.701 233.662Z" fill="#000000" fill-rule="nonzero" opacity="1" stroke="none"/>
<path d="M491.269 367.837C492.714 363.565 495.202 359.721 498.508 356.653L393.144 301.021C392.131 304.025 390.647 307.21 389.344 310.07C389.086 310.647 388.783 311.204 388.439 311.735C387.57 313.038 386.52 314.268 385.507 315.535L490.473 370.877C490.686 369.851 490.952 368.836 491.269 367.837Z" fill="#000000" fill-rule="nonzero" opacity="1" stroke="none"/>
<path d="M548.71 349.667C551.431 351.517 554.041 353.523 556.529 355.675C556.982 356.027 557.395 356.427 557.759 356.87L560.582 360.489L643.107 275.902C638.773 272.282 635.424 267.625 633.371 262.365L548.385 349.45L548.71 349.667Z" fill="#000000" fill-rule="nonzero" opacity="1" stroke="none"/>
<path d="M385.688 257.261C386.555 258.404 387.33 259.615 388.004 260.881C388.584 262.039 389.018 263.233 389.525 264.5L467.199 210.208C465.977 208.438 464.877 206.588 463.905 204.67C462.076 201.838 460.559 198.816 459.381 195.657L380.584 250.782C382.358 252.918 384.023 255.09 385.688 257.261Z" fill="#000000" fill-rule="nonzero" opacity="1" stroke="none"/>
<path d="M635.687 217.302L554.14 185.197C552.669 190.55 550.214 195.583 546.901 200.037L631.235 233.264C631.567 227.687 633.085 222.245 635.687 217.302Z" fill="#000000" fill-rule="nonzero" opacity="1" stroke="none"/>
<path d="M516.605 345.722L516.859 345.722L517.619 345.541C521.001 344.796 524.439 344.336 527.898 344.166L528.622 344.166L532.242 344.528L518.451 225.771C513.557 227.699 508.363 228.752 503.105 228.884L502.236 228.884L515.918 346.12L516.605 345.722Z" fill="#000000" fill-rule="nonzero" opacity="1" stroke="none"/>
<path d="M504.154 549.283C500.326 549.29 497 546.653 496.135 542.924C495.27 539.195 497.094 535.362 500.535 533.683L958.185 307.174C961.298 305.734 964.978 306.389 967.404 308.814C969.829 311.239 970.484 314.92 969.044 318.033L931.184 397.662C930.244 399.645 928.549 401.17 926.478 401.897L506.616 548.812C505.826 549.101 504.995 549.26 504.154 549.283ZM944.214 332.402L627.326 489.235L918.009 387.527L944.214 332.402Z" fill="#000000" fill-rule="nonzero" opacity="1" stroke="none"/>
<path d="M504.154 549.283C501.423 549.294 498.867 547.935 497.35 545.663C494.806 541.914 495.778 536.814 499.521 534.262L877.072 278.435C880.042 276.434 883.965 276.587 886.77 278.813C889.576 281.039 890.616 284.825 889.342 288.172L856.477 373.375C855.54 376.27 853.08 378.41 850.083 378.937C847.086 379.464 844.043 378.291 842.175 375.89C840.307 373.488 839.919 370.25 841.167 367.475L864.585 306.74L508.751 547.908C507.394 548.821 505.791 549.301 504.154 549.283Z" fill="#000000" fill-rule="nonzero" opacity="1" stroke="none"/>
<path d="M504.118 549.283C503.193 549.286 502.274 549.127 501.403 548.812L81.5407 401.897C79.4566 401.192 77.7547 399.66 76.8353 397.662L38.9391 318.033C37.4552 314.872 38.1312 311.119 40.6246 308.674C43.1179 306.23 46.884 305.628 50.0148 307.174L507.665 533.683C511.106 535.362 512.93 539.195 512.065 542.924C511.2 546.653 507.874 549.29 504.046 549.283L504.118 549.283ZM90.2637 387.527L380.946 489.235L64.0223 332.402L90.2637 387.527Z" fill="#000000" fill-rule="nonzero" opacity="1" stroke="none"/>
<path d="M504.154 549.283C502.502 549.295 500.886 548.803 499.521 547.871L143.688 306.776L167.142 367.511C168.769 371.749 166.654 376.502 162.417 378.131C158.181 379.76 153.426 377.647 151.795 373.411L118.93 288.208C117.656 284.861 118.697 281.075 121.502 278.849C124.307 276.623 128.231 276.47 131.2 278.472L508.751 534.298C512.495 536.85 513.466 541.95 510.923 545.7C509.413 547.957 506.87 549.303 504.154 549.283Z" fill="#000000" fill-rule="nonzero" opacity="1" stroke="none"/>
</g>
</svg>
